<svg xmlns="http://www.w3.org/2000/svg" viewBox="130 0 420 210" fill="#22c55e">
  <path d="M536.6,139.61c-4.62-15.04-9.76-29.88-18.07-43.41c-13.43-21.86-28.36-42.36-49.4-57.76      c-17.28-12.65-34.85-24.5-55.79-30.55c-17.32-5-34.79-8.21-52.88-7.86c-11.68,0.23-23.34,0.78-34.98,1.69      c-10.6,0.83-21.14,2.27-31.39,5.26c-18.99,5.55-35.64,15.43-50.28,28.52c-33.35,29.8-54.06,67.02-63.49,110.59      c-4.23,19.53-5.74,39.36-5.48,59.33c0.03,2.17,0.64,2.58,2.69,2.58c42.79-0.06,85.58-0.05,128.37-0.05c0.79,0,1.57,0,2.41,0      c-1.79-6.22-1.96-7.96-1.16-11.39c1.09-4.67,4.95-8.26,8.83-8.2c3.89,0.06,7.56,3.73,8.62,8.44c0.85,3.82,0.32,7.43-1.44,11.15      c4.06,0,7.88-0.09,11.68,0.04c1.55,0.05,2.09-0.51,2.34-1.93c1.7-9.61-0.84-18.02-7.02-25.44c-0.53-0.64-1.4-1.03-1.53-2.02      c9.07,2.16,14.69,15.43,12.33,29.36c1.07,0,1.95,0,2.82,0c66.07,0,132.13,0,198.2,0c3.14,0,3.21,0,3.22-3.22      C545.22,182.64,543.11,160.82,536.6,139.61z M312.64,33.9c-0.68,0.42-1.31,0.3-2.35,0.03C311.38,33.68,311.97,33.6,312.64,33.9z       M197.5,175.08c0.52,0.71,0.29,1.21,0.23,1.88C197.2,176.27,197.44,175.77,197.5,175.08z M199.4,188.15c0-0.07,0-0.14,0-0.21      c5.4,0,10.8,0,16.19,0c0,0.07,0,0.14,0,0.21C210.19,188.15,204.8,188.15,199.4,188.15z M217.12,188.1      c0.03-0.08,0.07-0.16,0.1-0.24c11.89,0,23.79,0,35.68,0c0,0.08,0,0.16,0,0.24C240.98,188.1,229.05,188.1,217.12,188.1z       M281.43,188.1c0-0.06,0-0.12,0-0.18c4.89,0,9.79,0,14.68,0c0,0.06,0,0.12,0,0.18C291.22,188.1,286.33,188.1,281.43,188.1z       M295.37,187.21c-2.56,0.09-5.12,0.02-7.68,0.02c-29.18,0-58.36-0.01-87.54,0.04c-1.97,0-2.91-0.32-2.73-2.63      c2.05-25.74,7.76-50.49,19.72-73.57c2.57-4.97,5.39-9.8,8.49-14.46c1.48-2.22,1.73-2.3,3.41-0.21      c6.71,8.36,13.36,16.75,20.02,25.15c15.86,19.98,31.7,39.97,47.55,59.95c0.35,0.44,0.72,0.87,1.01,1.34      C298.95,184.94,297.86,187.13,295.37,187.21z M313.19,172.24c-0.94,0.4-1.28-0.7-1.73-1.27      c-23.59-29.88-47.16-59.79-70.78-89.65c-1.27-1.61-1.35-2.73-0.08-4.37c9.42-12.24,21.2-21.7,34.44-29.44      c10.2-5.96,20.93-10.61,32.69-12.62c5.86-1,5.84-1.1,5.84,4.82c0,21.28,0,42.56,0,63.84c0,21.84,0,43.68,0,65.52      c0,0.4,0.04,0.8-0.01,1.2C313.48,170.95,313.92,171.93,313.19,172.24z M325.9,201.16c-0.76-0.52-0.07-1.19-0.22-1.78      C326.12,199.92,326.06,200.52,325.9,201.16z M466.71,40.58c3.85,5.69,7.75,11.35,11.62,17.03c0.34,0.5,0.99,1,0.62,1.68      c-0.37,0.67-1.15,0.41-1.75,0.41c-9.19,0.02-18.38,0-27.57,0.04c-1.3,0.01-2.26-0.44-3.18-1.33      c-5.96-5.79-11.97-11.53-17.94-17.31c-0.48-0.47-1.38-0.89-1-1.7c0.36-0.77,1.28-0.44,1.96-0.44      c5.67-0.03,11.35-0.01,17.02-0.01c5.59,0,11.19,0.03,16.78-0.02C464.76,38.9,465.85,39.3,466.71,40.58z M478.08,60.48      c-9.71,0-19.43,0-29.14,0c0-0.08,0-0.15,0-0.23c9.7,0,19.4,0,29.09,0C478.05,60.33,478.07,60.41,478.08,60.48z M463.62,38.44      c-11.89,0-23.79,0-35.68,0c0-0.08,0-0.16,0-0.24c11.93,0,23.85,0,35.78,0C463.68,38.28,463.65,38.36,463.62,38.44z       M421.79,13.58c1.23,0,2.32,0.19,3.35,0.98c7.27,5.62,14.56,11.2,21.86,16.78c0.38,0.29,0.83,0.47,1.47,0.82      c-1.3,1.07-2.13,0.87-2.91,0.87c-7.99-0.02-15.98-0.07-23.97-0.06c-1.41,0-2.66-0.31-3.84-1.08      c-8.5-5.53-17.02-11.05-25.53-16.57c-0.51-0.33-1.13-0.59-1.24-1.33c0.69-0.72,1.53-0.42,2.28-0.43      C402.77,13.56,412.28,13.59,421.79,13.58z M407.1,9.75L407.1,9.75L407.1,9.75c0.67-0.12,1.47-0.08,1.46,0.69      c-0.01,0.42-0.89,0.45-1.44,0.23c-7.66-0.04-15.36,0.33-22.98-0.27c-5.19-0.41-10.28-2.15-15.39-3.37      c-2.84-0.68-5.76-1.14-8.45-2.51C376.17,3.86,392,3.46,407.1,9.75z M367.76,3.1c0,0.08,0,0.16,0,0.24c-3.15,0-6.3,0-9.45,0      c-0.01-0.08-0.01-0.16-0.02-0.24C361.44,3.1,364.6,3.1,367.76,3.1z M331.6,166.6c-0.08-0.03-0.16-0.06-0.23-0.09      c0-44.21,0-88.43,0-132.64c0.08,0,0.16,0,0.23,0C331.6,78.11,331.6,122.36,331.6,166.6z M333.68,166.64L333.68,166.64      L333.68,166.64c-0.17,0.6-0.58,0.98-1.16,0.69c-0.45-0.22-0.42-0.75-0.21-1.21c0-43.49,0.01-86.98,0.01-130.47      c0-3.6,0.01-3.65,3.67-3.07c18.97,2.99,37.33,7.88,54.12,17.6c8.07,4.67,15.41,10.3,21.98,16.92c2.24,2.26,2.22,2.26,0.1,4.82      C386.02,103.49,359.85,135.06,333.68,166.64z M462.17,188.73c-19.44-0.08-38.88-0.04-58.31-0.04c-19.36,0-38.72,0.01-58.07-0.02      c-0.91,0-2.17,0.5-2.68-0.44c-0.55-1.02,0.67-1.65,1.25-2.34c27.35-33.01,54.72-66.01,82.09-99.01      c1.69-2.04,1.81-2.03,3.44,0.16c13.88,18.6,23.99,39.03,29.79,61.54c3.14,12.2,4.92,24.6,5.48,37.19      C465.24,188.14,464.46,188.74,462.17,188.73z M467.4,94.02c-5.64-9.38-11.24-18.79-16.9-28.16c-1.04-1.72-0.33-2.04,1.28-2.03      c6.48,0.03,12.95,0.01,19.43,0.01c6.4,0,12.79,0.07,19.19-0.04c1.94-0.03,2.71,0.78,3.07,2.52c2.02,9.77,4.06,19.54,6.18,29.29      c0.45,2.08-0.17,2.59-2.23,2.64c-8.16,0.18-16.29-0.5-24.44-0.65C470.36,97.55,468.66,96.11,467.4,94.02z M484.18,138.99      c-3.6-11.41-7.25-22.81-10.84-34.22c-0.94-2.98-0.88-3,2.36-3.01c7.03,0,14.07,0,21.1,0c6.79,0,13.59,0.01,20.38,0      c4.08-0.01,3.74,0.06,3.37,3.63c-1.19,11.44-2.3,22.89-3.35,34.34c-0.18,2.01-0.93,2.75-2.98,2.72      c-8.47-0.13-16.94-0.18-25.41-0.15C486.34,142.3,484.9,141.29,484.18,138.99z M519.68,122.1c-0.3-0.51-0.29-0.99,0.01-1.62      C520.02,121.09,520.06,121.58,519.68,122.1z M536.5,152.66c-3.92,13.08-7.72,26.2-11.62,39.29c-1.09,3.65-1.72,4.03-5.43,4.04      c-8.31,0.02-16.62,0.03-24.94,0.09c-1.56,0.01-2.48-0.21-2.65-2.12c-1.31-14.32-2.72-28.63-4.15-42.94      c-0.18-1.82,0.4-2.45,2.21-2.38c7.43,0.29,14.86,0.5,22.28,0.74c0,0.03,0,0.05,0,0.08c7.51,0.26,15.01,0.55,22.52,0.74      C536.62,150.24,537.05,150.79,536.5,152.66z"/>
</svg>
