<svg xml:space="preserve" style="enable-background:new 0 0 720.01 348.53;" viewBox="0 0 720.01 348.53" y="0px" x="0px" xmlns:xlink="http://www.w3.org/1999/xlink" xmlns="http://www.w3.org/2000/svg" id="Logo" version="1.1">
<style type="text/css">
	.st0{fill:#42220E;}
	.st1{fill:#FDFDFD;}
	.st2{fill:#321C0C;}
	.st3{fill:#3B2211;}
	.st4{fill:#3A1F0B;}
	.st5{fill:#311A0A;}
	.st6{fill:#3A1F0E;}
	.st7{fill:#BE8E8E;}
	.st8{fill:#2E1910;}
	.st9{fill:#996A6B;}
	.st10{fill:#321C0D;}
	.st11{fill:#331B0F;}
	.st12{fill:#33190A;}
	.st13{fill:#452412;}
	.st14{fill:#3E1F08;}
	.st15{fill:none;stroke:#311A0A;stroke-width:0;stroke-linecap:round;stroke-linejoin:round;}
	.st16{fill:#321A0E;}
</style>
<g>
	<g>
		<g>
			<g>
				<path d="M104.97,220.96c0.78,0,1.14-0.45,1.07-1.25c-0.08-0.84-0.74-0.73-1.26-0.74c-1.28-0.03-2.56,0.02-3.84,0.02
					c-4.88,0-9.76,0.01-14.64-0.01c-0.78,0-1.51,0.03-1.52,1.01c-0.01,0.86,0.63,1.22,1.39,1.35c0.31,0.05,0.64,0.02,0.96,0.04
					c2.68,0.17,3.51,1.01,3.56,3.63c0.05,2.88-0.67,5.63-1.28,8.41c-3.59,16.27-7.15,32.55-10.73,48.82
					c-0.57,2.61-1.2,5.22-1.8,7.83c-3.92-12.03-7.51-23.95-10.99-35.91c-3.14-10.77-6.17-21.57-9.28-32.35
					c-0.27-0.93-0.31-2.27-1.63-2.28c-1.32-0.01-1.12,1.52-1.7,2.28c-0.08,0.11-0.01,0.32-0.04,0.47
					c-4.15,16.27-8.33,32.54-12.45,48.82c-2.19,8.66-4.28,17.34-6.41,26.01c-1.01-2.67-1.72-5.31-2.21-7.99
					c-3.83-20.82-8.72-41.45-11.7-62.44c-0.48-3.41,0-4.23,3.28-4.82c0.81-0.15,1.65-0.39,1.62-1.39c-0.03-0.94-0.83-1.36-1.62-1.43
					c-1.27-0.11-2.57-0.16-3.83,0c-5.18,0.67-10.36,0.54-15.54,0.05c-0.87-0.08-1.77-0.11-2.63,0.03c-0.86,0.15-1.8,0.49-1.75,1.62
					c0.05,1.06,0.88,1.08,1.73,1.15c2.6,0.23,4.37,1.51,4.99,4.17c0.25,1.06,0.69,2.08,0.92,3.15c2.61,12.06,5.17,24.13,7.8,36.18
					c3.78,17.34,7.6,34.68,11.43,52.02c0.68,3.06,1.47,6.1,2.25,9.13c0.15,0.59,0.32,1.3,1.1,1.38c0.82,0.09,1.07-0.67,1.32-1.18
					c0.45-0.9,0.78-1.87,1.06-2.84c7.11-24.64,13.01-49.59,19.51-74.7c0.37,0.5,0.56,0.66,0.62,0.86
					c6.12,21.89,12.55,43.69,19.26,65.4c0.41,1.34,0.36,3.5,2.22,3.42c1.56-0.07,1.69-2.14,2-3.43c2.18-9,4.21-18.04,6.32-27.06
					c4.7-20.08,9.91-40.03,15.4-59.91C98.94,224.86,99.91,220.93,104.97,220.96z" class="st0"></path>
			</g>
		</g>
		<g>
			<g>
				<path d="M490.4,294.34c-4.47-0.37-6.21-1.92-6.58-5.91c-0.95-10.12-0.17-20.29-0.75-30.42
					c-0.06-0.96,0.25-1.38,1.4-1.32c11.24,0.52,22.49,0.83,33.73,1.6c1.42,0.1,1.66,0.56,1.64,1.82
					c-0.06,5.04-0.03,10.08-0.03,15.11c0,5.04,0.3,10.1-0.09,15.1c-0.39,5.02-0.47,6.46-5.99,6.23c-0.6-0.02-1.45-0.16-1.53,0.69
					c-0.06,0.71,0.7,1.05,1.28,1.22c0.67,0.19,1.42,0.12,2.12,0.21c4.65,0.62,9.36,0.43,14,1.33c3.57,0.69,7.21,1.02,10.82,1.5
					c0.83,0.11,1.68,0.09,1.9-0.93c0.24-1.12-0.89-0.88-1.41-1.24c-0.24-0.16-0.61-0.13-0.93-0.18c-6.75-1.04-7.01-1.73-7.65-8.26
					c-0.83-8.44-0.56-16.93-0.54-25.4c0.02-12.39-0.86-24.78-0.42-37.17c0.19-5.44,0.61-7.82,5.97-7.58
					c0.23,0.01,0.46-0.13,0.69-0.18c0.48-0.09,1.03-0.17,1.06-0.76c0.04-0.63-0.41-1.05-0.97-1.19c-0.53-0.13-1.11-0.11-1.66-0.09
					c-4.31,0.15-8.63,0.55-12.93,0.39c-3.75-0.14-7.5-0.45-11.25-0.4c-0.83,0.01-2-0.29-2.09,0.97c-0.11,1.51,1.21,0.88,1.92,0.93
					c4.92,0.38,6.97,1.7,7.14,5.57c0.36,8.3,0.38,16.62,0.56,24.93c0.02,1.08-0.28,1.5-1.52,1.45c-11.09-0.45-22.19-0.85-33.28-1.19
					c-1.48-0.05-2.2-0.36-2.19-2c0.05-7.52-0.28-15.05,0.13-22.55c0.28-5.06,0.64-5.49,5.61-6.21c0.73-0.11,2.02,0.59,1.96-0.93
					c-0.05-1.35-1.25-0.96-2.05-0.96c-7.99-0.02-15.97-0.01-23.96-0.01c-0.56,0-1.12,0-1.68,0c-0.59,0-1.2,0.06-1.22,0.81
					c-0.02,0.79,0.5,1.11,1.25,1.11c0.56,0,1.12,0,1.68,0.01c4.25,0.05,6.19,1.99,6.29,6.27c0.43,19.03,0.61,38.06,0.46,57.09
					c-0.01,1.82-0.18,3.67-0.55,5.45c-0.41,1.97-1.36,3.57-3.86,3.23c-0.71-0.1-1.44-0.02-2.16,0.02c-0.62,0.04-1.1,0.33-1.06,1.03
					c0.03,0.56,0.46,0.77,0.99,0.84c1.19,0.14,2.38,0.48,3.56,0.43c7.44-0.32,14.76,1.16,22.15,1.52c1.2,0.06,3.11,0.92,3.26-0.52
					C493.78,294.42,491.72,294.45,490.4,294.34z" class="st0"></path>
			</g>
		</g>
		<g>
			<g>
				<path d="M456.98,218.52c-5.99-0.01-11.99-0.01-17.98-0.01c-0.24,0-0.48-0.02-0.72,0.01
					c-0.52,0.06-0.92,0.34-0.97,0.87c-0.06,0.6,0.49,0.83,0.92,0.94c0.53,0.14,1.11,0.07,1.67,0.1c2.62,0.16,3.44,1.21,3.29,3.83
					c-0.15,2.63-0.9,5.1-1.6,7.6c-3.77,13.45-7.53,26.91-11.43,40.81c-0.46-1.06-0.78-1.75-1.06-2.44
					c-6.56-16.36-13.11-32.72-19.67-49.08c-0.4-0.99-0.61-2.4-1.97-2.35c-1.31,0.05-1.53,1.41-1.9,2.43
					c-3.68,10.25-7.34,20.5-11.03,30.74c-2.42,6.72-4.88,13.43-7.39,20.35c-0.22-0.48-0.34-0.69-0.41-0.91
					c-4.83-15.57-9.56-31.16-13.68-46.93c-0.75-2.86-0.09-3.63,3.04-4.11c0.68-0.11,1.61-0.07,1.61-1.04c0-1.13-0.99-0.81-1.63-0.81
					c-7.28-0.02-14.55-0.02-21.83-0.01c-0.6,0-1.48-0.24-1.57,0.62c-0.08,0.84,0.69,1.29,1.45,1.22c4-0.36,5.35,2.32,6.37,5.42
					c5.6,17.04,11.19,34.09,16.79,51.13c1.52,4.62,3.03,9.25,4.6,13.86c0.24,0.69,0.38,1.6,1.45,1.67c1.03,0.06,1.37-0.75,1.76-1.4
					c0.52-0.87,0.93-1.82,1.34-2.76c6.82-15.76,12.35-32.02,18.45-48.2c0.8,0.63,0.92,1.44,1.2,2.15
					c6.54,16.23,13.07,32.46,19.62,48.68c0.48,1.2,0.68,2.96,2.37,2.85c1.5-0.09,1.43-1.87,2-2.93c0.03-0.06,0-0.16,0.02-0.24
					c4.32-13.75,8.6-27.5,12.96-41.23c2.6-8.19,5.14-16.41,8.12-24.48c1.02-2.77,2.53-4.75,5.83-4.46c0.83,0.07,1.47-0.19,1.44-1.14
					C458.38,218.29,457.56,218.52,456.98,218.52z" class="st0"></path>
			</g>
		</g>
		<g>
			<g>
				<path d="M340.43,287.05c1.95,1.79,4.19,2.97,6.81,3.47c5.15,0.97,10.35,0.21,15.52,0.47
					c0.71,0.03,1.41-0.17,1.44-0.88c0.04-0.92-0.75-1.02-1.53-1.05c-4.35-0.14-7.89-2.07-10.9-5.06
					c-4.65-4.62-9.38-9.17-13.87-13.95c-2.98-3.17-6.05-6.3-8.19-10.17c-0.71-1.29-0.77-2.3,0.82-2.96
					c10.96-4.6,13.33-16.56,10.85-25.8c-2.45-9.17-9.47-11.88-18.5-12.54c-4.93-0.36-9.91-0.06-14.87-0.06c0,0.01,0,0.01,0,0.02
					c-1.6,0-3.2,0-4.8,0c-3.76-0.01-7.52,0-11.28-0.03c-0.7,0-1.4,0.14-1.48,0.85c-0.09,0.8,0.73,0.98,1.34,1.04
					c0.95,0.09,1.92,0,2.88,0.05c2.86,0.15,4.64,1.69,4.79,4.26c0.19,3.19,0.41,6.38,0.39,9.58c-0.06,9.51-0.15,19.02-0.37,28.53
					c-0.16,7.02,0.4,14.05-0.43,21.07c-0.65,5.54-0.49,5.57-6.39,6.64c-0.59,0.11-1.22,0.29-1.26,0.88c-0.05,0.76,0.6,1.02,1.3,1.04
					c0.72,0.01,1.44,0.06,2.16,0c5.8-0.53,11.6-0.99,17.43-0.95c2.24,0.02,4.48,0,6.72,0c0.78,0,1.57-0.17,1.5-1.07
					c-0.06-0.69-0.8-0.89-1.5-0.85c-0.4,0.02-0.8-0.01-1.2,0c-6.63,0.24-6.4-1.97-6.71-6.73c-0.42-6.45-0.07-12.95-0.18-19.42
					c-0.03-1.78,0.64-2.3,2.25-2.08c0.55,0.08,1.13,0.16,1.67,0.08c4.52-0.63,7.28,1.25,9.8,5.15
					C329.34,273.79,333.99,281.14,340.43,287.05z M318.37,256.87c-1.74-0.03-3.5-0.24-5.22-0.53c-1.43-0.24-2.26-0.93-2.2-2.72
					c0.16-4.71,0.05-9.42,0.05-14.13c0,0,0.01,0,0.01,0c0-4.71,0.01-9.42-0.01-14.13c0-0.92,0-1.71,1.14-2.03
					c6.49-1.81,13.51,1.38,16.7,7.39c1.62,3.05,2.03,6.31,2.06,9.6c0.03,3.21-0.36,6.41-1.61,9.48
					C327.27,254.77,323.57,256.97,318.37,256.87z" class="st0"></path>
			</g>
		</g>
		<g>
			<g>
				<path d="M658.45,299.41c-0.73-0.15-0.77,0.51-0.94,1.05c-0.65,2.03-0.59,4.19-1.34,6.21
					c-0.8,2.15-3.1,4.14-5.47,4.1c-3.99-0.08-7.83-0.64-11.63-1.86c-3.73-1.2-5.2-4.02-5.48-7.52c-0.88-10.86-0.33-21.74-0.55-32.61
					c-0.04-1.83,0.78-1.94,2.11-1.79c3.07,0.34,6.15,0.64,9.22,1.03c4.11,0.52,7.27,2.19,7.8,6.81c0.13,1.11,0.11,2.23,0.11,3.35
					c0,0.85,0.11,1.79,1.11,1.79c1.02,0.01,0.8-1,0.8-1.67c0-6.07,0.42-12.11,0.94-18.15c0.05-0.56,0.39-1.39-0.35-1.7
					c-0.83-0.35-1.21,0.28-1.58,0.99c-0.53,1.04-1.53,1.7-2.66,1.75c-5.35,0.25-10.67-0.2-15.99-0.74c-0.77-0.08-1.49-0.09-1.5-1.32
					c-0.11-10.55-0.28-21.1-0.46-31.65c-0.02-1.35,0.53-1.86,1.87-1.79c3.75,0.2,7.52,0.14,11.24,0.56c5.62,0.64,7.4,2.82,7.56,8.57
					c0.02,0.63,0.05,1.29,0.2,1.9c0.13,0.52,0.33,1.13,1.09,1.02c0.66-0.1,0.55-0.64,0.62-1.1c0.87-5.76,0.25-11.63,1.27-17.39
					c0.17-0.98-0.62-1.49-1.57-1.15c-4.16,1.5-8.48,1.17-12.76,1.15c-9.43-0.05-18.87-0.25-28.3-0.3c-0.75,0-2.1-0.69-2.31,0.85
					c-0.23,1.69,1.28,0.94,2.01,1.25c0.43,0.18,0.94,0.28,1.41,0.27c3.34-0.05,5.39,1.77,5.67,6.17c0.79,12.54,0.39,25.1,0.5,37.65
					c-0.1,12.7,0.85,25.4,0.03,38.11c-0.33,5.18-1.05,6.19-6.03,6.43c-0.08,0-0.16,0-0.24-0.01c-0.52-0.06-1.09,0.05-1.15,0.58
					c-0.06,0.51,0.16,1.11,0.78,1.32c0.6,0.2,1.2,0.45,1.81,0.51c7.93,0.8,15.73,2.29,23.46,4.22c4.73,1.18,9.53,2.06,14.32,2.95
					c1.66,0.31,3.5,0.35,3.85-1.99c0.82-5.52,1.25-11.08,1.09-16.67C659.01,300.08,658.95,299.52,658.45,299.41z" class="st0"></path>
			</g>
		</g>
		<g>
			<g>
				<path d="M167.89,300.64c-4.49,0.69-7.01-1.67-8.67-5.42c-0.8-1.79-1.62-3.58-2.28-5.43
					c-8.06-22.74-15.04-45.83-22.59-68.73c-0.48-1.45-0.67-3.76-2.28-3.79c-1.83-0.04-1.99,2.28-2.51,3.8
					c-6.73,19.82-12.9,39.82-19.18,59.79c-2.4,7.63-4.45,15.37-7.22,22.88c-1.42,3.84-3.79,6.71-8.09,7.4
					c-1.08,0.17-2.27,0.29-1.92,1.73c0.32,1.35,1.69,0.77,2.41,0.61c6.63-1.49,13.3-2.69,20.07-3.29c1.02-0.09,1.79-0.65,1.68-1.63
					c-0.12-1.1-1.21-0.81-1.95-0.74c-4.12,0.39-5.06-0.84-4.26-5.03c1.28-6.65,3.74-12.96,5.45-19.47c0.7-2.68,1.3-4.49,4.86-4.56
					c5.53-0.1,11.04-1.09,17.08-1.76c0.83-0.18,1.43,0.35,1.84,1.71c2.2,7.19,4.53,14.34,6.82,21.5c0.36,1.14,0.34,2.19-0.69,3.01
					c-0.55,0.44-1.8,0.5-1.29,1.57c0.46,0.95,1.55,0.6,2.4,0.51c2.6-0.27,5.21-0.54,7.8-0.88c4.23-0.57,8.45-1.18,12.68-1.81
					c0.84-0.12,1.97-0.14,1.79-1.39C169.66,299.99,168.49,300.54,167.89,300.64z M136.13,271.36c-4.51,0.31-9.01,0.85-13.51,1.37
					c-2.66,0.3-2.92,0.07-2.16-2.48c2.71-9.08,5.43-18.16,8.16-27.24c0.13-0.45,0.35-0.87,0.77-1.89
					c1.76,6.07,3.37,11.63,4.98,17.19c1.06,3.68,2.1,7.38,3.2,11.05C137.97,270.74,137.79,271.25,136.13,271.36z" class="st0"></path>
			</g>
		</g>
		<g>
			<g>
				<path d="M599.44,291.08c-0.62,0.02-0.84,0.58-0.91,1.19c-0.13,1.1-0.29,2.19-0.5,3.28
					c-0.72,3.74-2.8,5.85-5.92,5.99c-3.99,0.18-7.89-0.36-11.75-1.41c-4.05-1.1-5.61-3.21-5.77-7.59c-0.35-9.34-0.3-18.7-0.59-28.04
					c-0.07-2.2,0.75-2.53,2.59-2.31c3.07,0.38,6.17,0.58,9.24,0.97c3.91,0.5,7.37,1.39,7.44,7.64c0.01,0.63,0.1,1.27,0.23,1.89
					c0.12,0.54,0.29,1.2,1.01,1.14c0.77-0.07,0.67-0.74,0.66-1.29c-0.01-1.68,0.17-3.35,0.29-5.02c0.32-4.42,0.44-8.85,0.67-13.87
					c-2.13,1.44-3.11,3.28-5.47,3.32c-5.04,0.09-10.05-0.5-15.07-0.53c-1.13-0.01-1.57-0.47-1.55-1.58
					c0.16-9.43-0.24-18.86-0.48-28.29c-0.03-1.29,0.43-2.01,1.83-1.78c3.41,0.55,6.86,0.29,10.29,0.47
					c6.31,0.34,7.95,2.02,8.59,8.23c0.09,0.87-0.1,2.21,1.15,2.21c1.2,0,0.62-1.41,0.97-2.14c0.26-0.54,0.23-1.25,0.2-1.89
					c-0.18-4.08,0.27-8.12,0.72-12.16c0.19-1.72-0.74-1.79-1.83-1.41c-2.3,0.78-4.64,0.91-7.03,0.89
					c-10.79-0.06-21.58,0.16-32.36-0.43c-1.22-0.07-3.47-0.92-3.49,1.17c-0.02,1.8,2.12,1.08,3.33,1.14
					c3.28,0.16,5.35,1.97,5.61,5.24c0.23,2.87,0.52,5.75,0.45,8.61c-0.52,20.37,1.26,40.74,0.07,61.12
					c-0.25,4.27-1.15,5.24-5.39,5.25c-0.68,0-1.74-0.52-1.88,0.78c-0.13,1.25,1,1.45,1.74,1.49c1.76,0.09,3.48,0.43,5.22,0.53
					c6.26,0.34,12.36,1.63,18.5,2.74c5.12,0.92,10.27,1.73,15.41,2.57c1.93,0.31,3.21-0.3,3.55-2.45c0.71-4.64,1.03-9.31,1.24-14
					c0.01-0.16,0.01-0.33-0.05-0.47C600.18,291.79,600.11,291.07,599.44,291.08z" class="st0"></path>
			</g>
		</g>
		<g>
			<g>
				<path d="M719.16,309.37c-0.97,0.01-1.07,1.3-1.1,2.25c-0.08,2.55-0.83,4.94-1.86,7.25c-1,2.24-2.64,3.43-5.2,3.4
					c-4.48-0.04-8.7-1.17-12.86-2.72c-3.75-1.39-5.09-4.32-5.57-8.04c-0.6-4.62-0.43-9.25-0.52-13.87
					c-0.41-23.41-0.92-46.83,0.08-70.24c0.17-4.05,1.66-5.49,5.76-5.51c1.26-0.01,2.73-0.02,2.67-1.54
					c-0.05-1.27-1.45-1.37-2.64-1.37c-4.56-0.02-9.08,0.74-13.65,0.51c-3.67-0.19-7.32-0.73-11-0.5c-0.91,0.06-2.1-0.27-2.23,1.13
					c-0.15,1.52,1.13,1.19,2.01,1.35c4.85,0.88,6.49,2.7,6.59,7.32c0.3,13.43,0.68,26.85,0.5,40.29
					c-0.39,15.1,0.53,30.21-0.46,45.31c-0.32,4.86-1,5.78-5.72,5.89c-0.16,0-0.32-0.03-0.48-0.02c-0.46,0.02-1.02-0.08-1.02,0.64
					c0,0.46-0.11,1.02,0.41,1.28c0.48,0.24,1.01,0.45,1.54,0.55c3.87,0.73,7.77,1.31,11.61,2.15c9.66,2.1,19.07,5.23,28.79,7.13
					c2.16,0.42,3.4-0.29,3.7-2.44c0.86-5.99,1.49-12,1.44-18.05C719.95,310.7,720.33,309.36,719.16,309.37z" class="st0"></path>
			</g>
		</g>
		<g>
			<g>
				<path d="M276.95,290.89c0.8-3.09,0.8-6.27,1.29-9.4c0.18-1.13,0.85-3.04-0.76-3.29c-1.59-0.24-1.2,1.87-1.39,2.81
					c-0.71,3.67-2.67,6.18-6.26,6.93c-4.44,0.93-8.98,1.25-13.52,0.62c-2.26-0.31-3.62-2-3.86-4.46
					c-0.85-8.78,0.39-17.57-0.01-26.35c-0.06-1.34,0.68-1.35,1.65-1.34c4.08,0.02,8.16-0.03,12.24,0.02
					c3.17,0.04,5.09,1.95,5.33,5.14c0.04,0.56,0.03,1.12,0.01,1.68c-0.02,0.64,0.28,1.17,0.85,1.25c0.65,0.09,1.02-0.51,1.02-1.08
					c-0.02-4.87,0.76-9.68,1.03-14.52c0.02-0.35,0.18-0.83-0.33-1.02c-0.49-0.19-0.75,0.22-0.98,0.5c-1.17,1.45-2.71,2.06-4.52,2.31
					c-4.77,0.66-9.58,0.26-14.35,0.57c-1.72,0.11-1.97-0.54-1.94-2.02c0.08-3.76,0.03-7.52,0.03-11.28c0.03,0,0.06,0,0.09,0
					c0-3.84,0.01-7.68,0-11.52c-0.01-1.83,0.37-2.99,2.71-2.71c3.09,0.37,6.22,0.41,9.33,0.5c6.71,0.19,7.19,0.55,8.55,7.01
					c0.14,0.68,0.42,1.33,1.1,1.38c0.65,0.05,0.73-0.61,0.83-1.19c0.74-4.14,0.53-8.39,1.35-12.53c0.22-1.1-0.31-1.45-1.6-1.05
					c-1.32,0.41-2.74,0.62-4.19,0.68c-12.07,0.52-24.14,0.02-36.21-0.01c-1.04,0-2.91-0.71-2.91,0.99
					c-0.01,1.46,1.78,0.81,2.79,0.88c4.15,0.26,6.43,1.92,6.21,6.3c-0.16,3.27,0.07,6.55,0.02,9.83
					c-0.25,16.31,0.25,32.62-0.52,48.93c-0.28,5.84-1.06,7.1-6.34,8.69c-0.54,0.16-1.73-0.07-1.39,1.12
					c0.27,0.93,1.09,0.89,1.97,0.79c3.86-0.46,7.73-1,11.6-1.19c5.74-0.28,11.51-0.38,17.24-0.68c3.72-0.19,7.49,0.1,11.2-0.72
					C275.88,293.11,276.57,292.34,276.95,290.89z" class="st0"></path>
			</g>
		</g>
		<g>
			<g>
				<path d="M221.16,218.07c-2.81,0.58-5.65,0.91-8.52,0.91c-12.64,0-25.28,0.06-37.92-0.05
					c-2.75-0.02-5.58-0.11-8.26-0.88c-3.63-1.04-3.61-1.1-4.27,2.85c-0.05,0.31-0.25,0.59-0.29,0.9c-0.55,3.51-1.1,7.03-1.59,10.55
					c-0.08,0.58-0.2,1.4,0.75,1.48c0.79,0.06,0.99-0.5,1.2-1.19c0.34-1.12,0.85-2.19,1.34-3.27c1.04-2.33,3.03-3.28,5.41-3.67
					c5.06-0.82,10.22-0.11,15.28-0.96c2-0.34,2.45,0.41,2.47,2.41c0.22,18.96-0.65,37.9-0.59,56.86c0.01,3.25-0.61,6.49-0.81,9.74
					c-0.21,3.54-1.97,5.29-5.51,5.46c-0.67,0.03-1.98,0.05-1.75,1.39c0.15,0.86,0.96,0.99,1.72,0.87
					c7.12-1.17,14.26-2.15,21.49-2.46c1.72-0.07,3.5-0.17,5.22-0.46c0.71-0.12,1.82-0.46,1.65-1.39c-0.17-0.91-1.2-0.85-2-0.67
					c-1.52,0.34-3,0.07-4.52-0.07c-1.89-0.18-2.64-1.38-2.91-2.93c-0.31-1.79-0.57-3.59-0.56-5.45c0.06-9.92,0.03-19.84,0.03-29.76
					c0.16,0,0.32,0,0.48,0c0-10.63,0.03-21.27-0.03-31.9c-0.01-1.42,0.47-1.74,1.77-1.66c4.46,0.25,8.92-0.23,13.39,0.44
					c5.07,0.75,6.54,1.92,7.47,6.98c0.12,0.67,0.25,1.65,1.08,1.59c0.84-0.06,0.72-1.02,0.84-1.72c0.67-3.98,0.22-7.99,0.5-11.97
					C223.88,217.71,222.65,217.77,221.16,218.07z" class="st0"></path>
			</g>
		</g>
	</g>
	<g>
		<g>
			<g>
				<path d="M436.44,346.68c-3.16-0.2-4.08-0.88-4.63-3.94c-0.6-3.34-1.02-6.72-1.52-10.08
					c-1.1-7.34-2.22-14.68-3.32-22.02c-0.12-0.81,0.23-2.04-0.95-2.11c-0.97-0.05-1.15,1.14-1.52,1.9
					c-3.52,7.31-7,14.63-10.58,21.91c-0.91,1.85-1.62,3.83-3.01,5.57c-0.49-1.01-0.91-1.86-1.32-2.71
					c-4.05-8.25-8.1-16.5-12.17-24.74c-0.37-0.75-0.64-2.04-1.54-1.92c-1.04,0.13-1.04,1.34-1.15,2.33
					c-0.19,1.72-0.65,3.41-0.9,5.13c-1.31,8.83-2.57,17.66-3.9,26.48c-0.36,2.36-1.12,4.48-4.13,4.44c-0.02,0-0.05,0.27-0.08,0.44
					c4.07,0,8.13,0,12.18,0c-0.26-0.48-0.54-0.63-0.82-0.66c-3.3-0.33-3.56-0.4-3.23-3.53c0.69-6.69,1.61-13.36,2.51-20.57
					c3.71,7.4,7.13,14.3,10.64,21.15c0.7,1.36,1.04,3.69,2.52,3.66c1.41-0.03,1.76-2.35,2.44-3.72c3.49-7.02,6.9-14.07,10.57-21.59
					c0.72,4.82,1.61,9.09,1.93,13.4c0.27,3.74,1.96,7.41,0.68,11.26c-0.2,0.61,0.33,0.86,0.83,0.86c3.97,0.02,7.94,0.01,12.12,0.01
					C437.58,346.45,436.95,346.71,436.44,346.68z" class="st0"></path>
			</g>
		</g>
		<g>
			<g>
				<path d="M368.01,344.89c-4.07-3.08-6.67-7.44-9.98-11.17c-1.04-1.18-2.55-2.51-2.61-3.82
					c-0.06-1.4,1.99-2.28,3.01-3.48c2.94-3.46,4.15-7.43,2.35-11.67c-1.75-4.11-5.57-5.4-9.76-5.49c-5.28-0.1-10.56-0.04-15.83,0
					c-0.52,0-1.32-0.41-1.57,0.61c0.2,0.1,0.39,0.28,0.59,0.3c3.95,0.37,4.2,0.64,4.21,4.63c0,8.96,0,17.91,0,26.87
					c0,4.21-0.14,4.39-3.98,5.25c-0.07,0.02-0.1,0.26-0.2,0.56c5.24,0,10.43,0,15.74,0c-0.28-1-0.85-0.81-1.26-0.79
					c-2.22,0.13-3.51-0.54-3.82-3.08c-0.33-2.72-0.17-5.42-0.22-8.13c-0.08-3.93,0.5-4.34,4.47-3.69c1.15,0.19,1.68,1.08,2.26,1.91
					c1.28,1.81,2.47,3.67,3.8,5.44c7.36,9.82,7.27,8.43,16.97,8.49c0.08,0,0.16,0.01,0.24,0c0.41-0.08,1.05,0.2,0.95-0.85
					C371.46,346.64,369.64,346.12,368.01,344.89z M354.83,325.06c-1.48,3.98-5.79,5.75-9.51,3.82c-0.77-0.4-0.66-1-0.67-1.61
					c-0.01-2.32-0.01-4.64-0.01-6.96c0-2.32,0.04-4.64-0.01-6.96c-0.03-1.22,0.45-1.66,1.68-1.75c5.61-0.42,9.63,3.76,9.11,9.73
					C355.32,322.56,355.3,323.82,354.83,325.06z" class="st0"></path>
			</g>
		</g>
		<g>
			<g>
				<path d="M313.47,341.01c-1.1-2.51-2.11-5.06-3.15-7.6c-3.16-7.68-6.33-15.36-9.46-23.06
					c-0.31-0.76-0.58-1.83-1.29-1.85c-0.88-0.02-1.15,1.12-1.55,1.86c-0.07,0.14-0.1,0.3-0.16,0.45
					c-4.13,10.16-8.36,20.29-12.35,30.51c-1.25,3.22-2.79,5.59-6.59,5.56c-0.05,0-0.1,0.26-0.21,0.55c4.46,0,8.87,0,13.61,0
					c-0.44-0.41-0.57-0.65-0.74-0.68c-3.3-0.6-3.57-1.06-2.39-4.28c0.78-2.14,1.66-4.24,2.41-6.39c0.36-1.04,0.88-1.47,2.05-1.43
					c2.96,0.1,5.92,0.09,8.87,0.01c1.14-0.03,1.69,0.32,2.07,1.41c0.93,2.66,1.91,5.31,3.05,7.89c0.56,1.26,0.88,2.34-0.55,3.48
					c4.7,0,8.99,0,13.29,0c0.11-0.27,0.23-0.54,0.34-0.81C316.07,347.34,314.82,344.09,313.47,341.01z M301.58,332.2
					c-2.31-0.05-4.63-0.05-6.95,0c-1.27,0.03-1.3-0.66-0.97-1.53c1.42-3.79,2.88-7.56,4.51-11.82c1.6,4.31,3.06,8.17,4.46,12.05
					C302.94,331.75,302.6,332.22,301.58,332.2z" class="st0"></path>
			</g>
		</g>
		<g>
			<g>
				<path d="M266.06,309.05c-6.66,0.6-13.41,0.16-20.12,0.2c-0.66,0-1.58-0.47-2,0.53c0.43,0.51,0.94,0.42,1.4,0.39
					c2.32-0.12,3.44,0.81,3.56,3.28c0.52,10.3,0.45,20.59-0.2,30.88c-0.09,1.4-0.8,2.36-2.4,2.35c-0.47,0-1.15-0.32-1.43,0.69
					c5.47,0,10.86,0,16.41,0c-0.56-1-1.27-0.67-1.84-0.7c-2.92-0.13-3.16-0.53-3.58-3.47c-0.47-3.27-0.4-6.53-0.41-9.8
					c-0.02-4.98-0.01-4.98,4.87-4.98c4.53,0,4.53,0,6.19,4.01c0.03,0.08,0.24,0.09,0.57,0.2c0.78-2.7-0.12-5.52,1.12-8.45
					c-1.27,0.62-2.02,1.26-2.8,1.31c-2.95,0.17-5.91,0.14-8.86,0.19c-1.25,0.02-1.1-0.85-1.1-1.65c0-3.44,0.08-6.87-0.03-10.31
					c-0.05-1.47,0.53-1.72,1.8-1.65c1.75,0.1,3.51,0.02,5.27,0.03c4.04,0,4.34,0.25,5.18,4.14c0.01,0.07,0.27,0.09,0.53,0.17
					c0.19-0.84,0.4-1.66,0.54-2.49c0.1-0.55,0.09-1.11,0.14-1.67C269.06,310.2,269.58,308.74,266.06,309.05z" class="st0"></path>
			</g>
		</g>
		<g>
			<g>
				<path d="M466.71,325.82c-2.25-1.88-4.8-3.4-6.81-5.57c-1.63-1.76-2.18-3.87-1.39-6.14
					c0.74-2.12,2.54-2.85,4.67-3.09c4.05-0.46,6.49,1.19,7.59,5.27c0.14,0.5,0.12,1.25,0.9,1.13c0.6-0.09,0.48-0.73,0.49-1.2
					c0.01-0.4,0-0.8,0-1.2c0.01-5.79,0.03-5.96-5.66-6.6c-4.05-0.46-7.97,0.41-11.01,3.37c-3.7,3.6-3.24,10.07,0.65,14.34
					c2.86,3.14,6.59,5.29,9.41,8.44c1.94,2.16,3.11,4.68,1.8,7.59c-1.26,2.78-3.62,3.71-6.61,3.6c-4.2-0.15-6.67-2.37-7.3-6.86
					c-0.07-0.5,0.25-1.34-0.54-1.35c-0.74-0.01-0.86,0.8-0.88,1.43c-0.03,1.12-0.01,2.24-0.01,3.36c0,0-0.01,0-0.01,0
					c0,0.48,0.09,0.98-0.01,1.44c-0.6,2.68,0.91,3.68,3.18,4.15c3.23,0.67,6.47,0.91,9.66,0c5.3-1.52,8.36-5.26,8.36-10.59
					C473.19,332.15,470.32,328.83,466.71,325.82z" class="st0"></path>
			</g>
		</g>
		<g>
			<g>
				<path d="M233.03,329.34c-4.87,0.08-9.75,0.03-14.63,0.03c-4.88,0-9.75,0.05-14.63-0.03
					c-1.36-0.02-1.73,0.39-1.74,1.73c-0.01,1.38,0.42,1.71,1.75,1.7c9.75-0.05,19.5-0.06,29.26,0c1.36,0.01,1.73-0.38,1.73-1.73
					C234.78,329.68,234.38,329.32,233.03,329.34z" class="st0"></path>
			</g>
		</g>
		<g>
			<g>
				<path d="M516.33,329.34c-9.83,0.07-19.66,0.07-29.5,0c-1.59-0.01-1.52,0.74-1.58,1.88
					c-0.07,1.32,0.45,1.57,1.64,1.56c4.88-0.06,9.75-0.02,14.63-0.02c4.96,0,9.91-0.05,14.87,0.03c1.3,0.02,1.59-0.41,1.58-1.63
					C517.96,329.92,517.83,329.33,516.33,329.34z" class="st0"></path>
			</g>
		</g>
		<g>
			<g>
				<path d="M292.58,332.2" class="st1"></path>
				<path d="M285.63,332.2" class="st1"></path>
			</g>
		</g>
		<g>
			<g>
				<path d="M289.17,318.85" class="st1"></path>
			</g>
		</g>
	</g>
</g>
<g>
	<g>
		<g>
			<g>
				<path d="M536.6,139.61c-4.62-15.04-9.76-29.88-18.07-43.41c-13.43-21.86-28.36-42.36-49.4-57.76
					c-17.28-12.65-34.85-24.5-55.79-30.55c-17.32-5-34.79-8.21-52.88-7.86c-11.68,0.23-23.34,0.78-34.98,1.69
					c-10.6,0.83-21.14,2.27-31.39,5.26c-18.99,5.55-35.64,15.43-50.28,28.52c-33.35,29.8-54.06,67.02-63.49,110.59
					c-4.23,19.53-5.74,39.36-5.48,59.33c0.03,2.17,0.64,2.58,2.69,2.58c42.79-0.06,85.58-0.05,128.37-0.05c0.79,0,1.57,0,2.41,0
					c-1.79-6.22-1.96-7.96-1.16-11.39c1.09-4.67,4.95-8.26,8.83-8.2c3.89,0.06,7.56,3.73,8.62,8.44c0.85,3.82,0.32,7.43-1.44,11.15
					c4.06,0,7.88-0.09,11.68,0.04c1.55,0.05,2.09-0.51,2.34-1.93c1.7-9.61-0.84-18.02-7.02-25.44c-0.53-0.64-1.4-1.03-1.53-2.02
					c9.07,2.16,14.69,15.43,12.33,29.36c1.07,0,1.95,0,2.82,0c66.07,0,132.13,0,198.2,0c3.14,0,3.21,0,3.22-3.22
					C545.22,182.64,543.11,160.82,536.6,139.61z M312.64,33.9c-0.68,0.42-1.31,0.3-2.35,0.03C311.38,33.68,311.97,33.6,312.64,33.9z
					 M197.5,175.08c0.52,0.71,0.29,1.21,0.23,1.88C197.2,176.27,197.44,175.77,197.5,175.08z M199.4,188.15c0-0.07,0-0.14,0-0.21
					c5.4,0,10.8,0,16.19,0c0,0.07,0,0.14,0,0.21C210.19,188.15,204.8,188.15,199.4,188.15z M217.12,188.1
					c0.03-0.08,0.07-0.16,0.1-0.24c11.89,0,23.79,0,35.68,0c0,0.08,0,0.16,0,0.24C240.98,188.1,229.05,188.1,217.12,188.1z
					 M281.43,188.1c0-0.06,0-0.12,0-0.18c4.89,0,9.79,0,14.68,0c0,0.06,0,0.12,0,0.18C291.22,188.1,286.33,188.1,281.43,188.1z
					 M295.37,187.21c-2.56,0.09-5.12,0.02-7.68,0.02c-29.18,0-58.36-0.01-87.54,0.04c-1.97,0-2.91-0.32-2.73-2.63
					c2.05-25.74,7.76-50.49,19.72-73.57c2.57-4.97,5.39-9.8,8.49-14.46c1.48-2.22,1.73-2.3,3.41-0.21
					c6.71,8.36,13.36,16.75,20.02,25.15c15.86,19.98,31.7,39.97,47.55,59.95c0.35,0.44,0.72,0.87,1.01,1.34
					C298.95,184.94,297.86,187.13,295.37,187.21z M313.19,172.24c-0.94,0.4-1.28-0.7-1.73-1.27
					c-23.59-29.88-47.16-59.79-70.78-89.65c-1.27-1.61-1.35-2.73-0.08-4.37c9.42-12.24,21.2-21.7,34.44-29.44
					c10.2-5.96,20.93-10.61,32.69-12.62c5.86-1,5.84-1.1,5.84,4.82c0,21.28,0,42.56,0,63.84c0,21.84,0,43.68,0,65.52
					c0,0.4,0.04,0.8-0.01,1.2C313.48,170.95,313.92,171.93,313.19,172.24z M325.9,201.16c-0.76-0.52-0.07-1.19-0.22-1.78
					C326.12,199.92,326.06,200.52,325.9,201.16z M466.71,40.58c3.85,5.69,7.75,11.35,11.62,17.03c0.34,0.5,0.99,1,0.62,1.68
					c-0.37,0.67-1.15,0.41-1.75,0.41c-9.19,0.02-18.38,0-27.57,0.04c-1.3,0.01-2.26-0.44-3.18-1.33
					c-5.96-5.79-11.97-11.53-17.94-17.31c-0.48-0.47-1.38-0.89-1-1.7c0.36-0.77,1.28-0.44,1.96-0.44
					c5.67-0.03,11.35-0.01,17.02-0.01c5.59,0,11.19,0.03,16.78-0.02C464.76,38.9,465.85,39.3,466.71,40.58z M478.08,60.48
					c-9.71,0-19.43,0-29.14,0c0-0.08,0-0.15,0-0.23c9.7,0,19.4,0,29.09,0C478.05,60.33,478.07,60.41,478.08,60.48z M463.62,38.44
					c-11.89,0-23.79,0-35.68,0c0-0.08,0-0.16,0-0.24c11.93,0,23.85,0,35.78,0C463.68,38.28,463.65,38.36,463.62,38.44z
					 M421.79,13.58c1.23,0,2.32,0.19,3.35,0.98c7.27,5.62,14.56,11.2,21.86,16.78c0.38,0.29,0.83,0.47,1.47,0.82
					c-1.3,1.07-2.13,0.87-2.91,0.87c-7.99-0.02-15.98-0.07-23.97-0.06c-1.41,0-2.66-0.31-3.84-1.08
					c-8.5-5.53-17.02-11.05-25.53-16.57c-0.51-0.33-1.13-0.59-1.24-1.33c0.69-0.72,1.53-0.42,2.28-0.43
					C402.77,13.56,412.28,13.59,421.79,13.58z M407.1,9.75L407.1,9.75L407.1,9.75c0.67-0.12,1.47-0.08,1.46,0.69
					c-0.01,0.42-0.89,0.45-1.44,0.23c-7.66-0.04-15.36,0.33-22.98-0.27c-5.19-0.41-10.28-2.15-15.39-3.37
					c-2.84-0.68-5.76-1.14-8.45-2.51C376.17,3.86,392,3.46,407.1,9.75z M367.76,3.1c0,0.08,0,0.16,0,0.24c-3.15,0-6.3,0-9.45,0
					c-0.01-0.08-0.01-0.16-0.02-0.24C361.44,3.1,364.6,3.1,367.76,3.1z M331.6,166.6c-0.08-0.03-0.16-0.06-0.23-0.09
					c0-44.21,0-88.43,0-132.64c0.08,0,0.16,0,0.23,0C331.6,78.11,331.6,122.36,331.6,166.6z M333.68,166.64L333.68,166.64
					L333.68,166.64c-0.17,0.6-0.58,0.98-1.16,0.69c-0.45-0.22-0.42-0.75-0.21-1.21c0-43.49,0.01-86.98,0.01-130.47
					c0-3.6,0.01-3.65,3.67-3.07c18.97,2.99,37.33,7.88,54.12,17.6c8.07,4.67,15.41,10.3,21.98,16.92c2.24,2.26,2.22,2.26,0.1,4.82
					C386.02,103.49,359.85,135.06,333.68,166.64z M462.17,188.73c-19.44-0.08-38.88-0.04-58.31-0.04c-19.36,0-38.72,0.01-58.07-0.02
					c-0.91,0-2.17,0.5-2.68-0.44c-0.55-1.02,0.67-1.65,1.25-2.34c27.35-33.01,54.72-66.01,82.09-99.01
					c1.69-2.04,1.81-2.03,3.44,0.16c13.88,18.6,23.99,39.03,29.79,61.54c3.14,12.2,4.92,24.6,5.48,37.19
					C465.24,188.14,464.46,188.74,462.17,188.73z M467.4,94.02c-5.64-9.38-11.24-18.79-16.9-28.16c-1.04-1.72-0.33-2.04,1.28-2.03
					c6.48,0.03,12.95,0.01,19.43,0.01c6.4,0,12.79,0.07,19.19-0.04c1.94-0.03,2.71,0.78,3.07,2.52c2.02,9.77,4.06,19.54,6.18,29.29
					c0.45,2.08-0.17,2.59-2.23,2.64c-8.16,0.18-16.29-0.5-24.44-0.65C470.36,97.55,468.66,96.11,467.4,94.02z M484.18,138.99
					c-3.6-11.41-7.25-22.81-10.84-34.22c-0.94-2.98-0.88-3,2.36-3.01c7.03,0,14.07,0,21.1,0c6.79,0,13.59,0.01,20.38,0
					c4.08-0.01,3.74,0.06,3.37,3.63c-1.19,11.44-2.3,22.89-3.35,34.34c-0.18,2.01-0.93,2.75-2.98,2.72
					c-8.47-0.13-16.94-0.18-25.41-0.15C486.34,142.3,484.9,141.29,484.18,138.99z M519.68,122.1c-0.3-0.51-0.29-0.99,0.01-1.62
					C520.02,121.09,520.06,121.58,519.68,122.1z M536.5,152.66c-3.92,13.08-7.72,26.2-11.62,39.29c-1.09,3.65-1.72,4.03-5.43,4.04
					c-8.31,0.02-16.62,0.03-24.94,0.09c-1.56,0.01-2.48-0.21-2.65-2.12c-1.31-14.32-2.72-28.63-4.15-42.94
					c-0.18-1.82,0.4-2.45,2.21-2.38c7.43,0.29,14.86,0.5,22.28,0.74c0,0.03,0,0.05,0,0.08c7.51,0.26,15.01,0.55,22.52,0.74
					C536.62,150.24,537.05,150.79,536.5,152.66z" class="st0"></path>
			</g>
		</g>
	</g>
	<g>
		<g>
			<g>
				<path d="M331.36,166.51c0.08,0.03,0.16,0.06,0.23,0.09c0-44.24,0-88.49,0-132.73c-0.08,0-0.16,0-0.23,0
					C331.36,78.08,331.36,122.3,331.36,166.51z" class="st2"></path>
			</g>
		</g>
	</g>
	<g>
		<g>
			<g>
				<path d="M427.94,38.44c11.89,0,23.79,0,35.68,0c0.03-0.08,0.06-0.16,0.09-0.24c-11.93,0-23.85,0-35.78,0
					C427.94,38.28,427.94,38.36,427.94,38.44z" class="st3"></path>
			</g>
		</g>
	</g>
	<g>
		<g>
			<g>
				<path d="M217.22,187.86c-0.03,0.08-0.07,0.16-0.1,0.24c11.93,0,23.85,0,35.78,0c0-0.08,0-0.16,0-0.24
					C241.01,187.86,229.11,187.86,217.22,187.86z" class="st4"></path>
			</g>
		</g>
	</g>
	<g>
		<g>
			<g>
				<path d="M448.94,60.48c9.71,0,19.43,0,29.14,0c-0.01-0.08-0.03-0.15-0.05-0.23c-9.7,0-19.4,0-29.09,0
					C448.94,60.33,448.94,60.41,448.94,60.48z" class="st5"></path>
			</g>
		</g>
	</g>
	<g>
		<g>
			<g>
				<ellipse ry="0.15" rx="11.45" cy="188.05" cx="207.49" class="st4"></ellipse>
			</g>
		</g>
	</g>
	<g>
		<g>
			<g>
				<path d="M281.43,187.92c0,0.06,0,0.12,0,0.18c4.89,0,9.79,0,14.68,0c0-0.06,0-0.12,0-0.18
					C291.22,187.92,286.32,187.92,281.43,187.92z" class="st4"></path>
			</g>
		</g>
	</g>
	<g>
		<g>
			<g>
				<path d="M367.76,3.34c0-0.08,0-0.16,0-0.24c-3.16,0-6.32,0-9.47,0c0.01,0.08,0.01,0.16,0.02,0.24
					C361.45,3.34,364.6,3.34,367.76,3.34z" class="st6"></path>
			</g>
		</g>
	</g>
	<g>
		<g>
			<g>
				<path d="M407.12,10.66c0.55,0.23,1.44,0.19,1.44-0.23c0.01-0.77-0.79-0.81-1.46-0.69v0
					C407.42,10.04,407.42,10.35,407.12,10.66z" class="st7"></path>
			</g>
		</g>
	</g>
	<g>
		<g>
			<g>
				<path d="M407.1,9.75c0.01,0.31,0.01,0.61,0.02,0.92C407.42,10.35,407.42,10.04,407.1,9.75z" class="st7"></path>
			</g>
		</g>
	</g>
	<g>
		<g>
			<g>
				<path d="M312.64,33.9c-0.67-0.3-1.26-0.22-2.35,0.03C311.33,34.2,311.96,34.32,312.64,33.9z" class="st8"></path>
			</g>
		</g>
	</g>
	<g>
		<g>
			<g>
				<path d="M332.31,166.12c-0.21,0.46-0.24,0.99,0.21,1.21c0.58,0.28,0.99-0.09,1.16-0.69h0
					C332.94,167.24,332.61,166.72,332.31,166.12z" class="st9"></path>
			</g>
		</g>
	</g>
	<g>
		<g>
			<g>
				<path d="M332.31,166.12c0.3,0.59,0.63,1.12,1.37,0.51C333.1,166.8,332.68,166.53,332.31,166.12z" class="st9"></path>
			</g>
		</g>
	</g>
	<g>
		<g>
			<g>
				<path d="M325.9,201.16c0.16-0.64,0.22-1.24-0.22-1.78C325.83,199.97,325.14,200.63,325.9,201.16z" class="st10"></path>
			</g>
		</g>
	</g>
	<g>
		<g>
			<g>
				<path d="M519.68,122.1c0.38-0.53,0.34-1.01,0.01-1.62C519.39,121.11,519.38,121.59,519.68,122.1z" class="st11"></path>
			</g>
		</g>
	</g>
	<g>
		<g>
			<g>
				<path d="M197.5,175.08c-0.06,0.69-0.3,1.19,0.23,1.88C197.79,176.29,198.02,175.78,197.5,175.08z" class="st12"></path>
			</g>
		</g>
	</g>
	<g>
		<g>
			<g>
				<path d="M446.23,118.11c-1.16-2.45-1.61-2.51-3.52-0.52c-15.42,16.12-30.84,32.26-46.28,48.37
					c-0.64,0.67-1.22,1.97-2.16,1.64c-1.16-0.4-0.62-1.82-0.64-2.78c-0.21-9.75-0.35-19.51-0.54-29.26
					c-0.01-0.76,0.26-1.78-0.65-2.12c-0.79-0.29-1.23,0.59-1.68,1.11c-3.27,3.73-6.5,7.49-9.79,11.2c-0.91,1.03-1.27,2.14-1.26,3.49
					c0.04,4,0.02,8,0.02,12c0,4.08,0.02,8.16-0.02,12.24c-0.01,0.74,0.4,1.8-0.56,2.11c-0.75,0.25-1.19-0.66-1.66-1.18
					c-3.01-3.31-6.08-6.58-8.98-9.99c-1.39-1.63-2.38-1.77-3.74-0.02c-1.76,2.27-3.63,4.47-5.56,6.6c-1.21,1.34-1.14,2.4,0,3.74
					c3.1,3.66,6.11,7.4,9.11,11.14c0.87,1.09,1.89,1.55,3.3,1.54c6.64-0.05,13.28-0.05,19.91,0c1.39,0.01,2.44-0.44,3.4-1.42
					c18.19-18.68,36.39-37.35,54.61-56c1.14-1.17,1.24-2.24,0.55-3.65C448.75,123.64,447.53,120.85,446.23,118.11z M380.63,175.7
					c-0.07,0-0.15,0-0.22,0c0-9.08,0-18.15,0-27.23c0.07,0,0.15,0,0.22,0C380.63,157.55,380.63,166.63,380.63,175.7z" class="st0"></path>
			</g>
		</g>
	</g>
	<g>
		<g>
			<g>
				<path d="M392.26,53.46c-3.48-1.79-6.94-3.59-10.43-5.36c-0.6-0.31-1.36-0.8-1.64,0.41
					c0.68,0.53,0.54,1.28,0.54,1.99c0,17.99,0,35.99,0,53.98c0,0.23-0.08,0.45-0.15,0.83c-0.54-0.91-0.28-1.77-0.28-2.57
					c-0.02-17.03-0.01-34.07-0.02-51.1c0-1.04-0.06-2.08-0.08-3.11c0,0,0,0,0,0c-0.63,0.78-0.32,1.69-0.32,2.54
					c-0.02,13.26-0.01,26.52-0.01,39.78c0,4.63-0.01,9.27,0,13.9c0,0.68-0.17,1.58,0.73,1.81c0.74,0.18,1.05-0.6,1.45-1.06
					c3.42-4.01,6.82-8.04,10.26-12.04c0.92-1.07,1.47-2.2,1.46-3.67c-0.03-11.18-0.03-22.36,0-33.55
					C393.76,54.97,393.4,54.05,392.26,53.46z M393.15,90.66c-0.08,0-0.16,0-0.23,0c0-11.76,0-23.53,0-35.29
					c0.08,0.03,0.16,0.06,0.23,0.09C393.15,67.2,393.15,78.93,393.15,90.66z" class="st0"></path>
			</g>
		</g>
	</g>
	<g>
		<g>
			<g>
				<path d="M337.26,124.91c-0.35-0.42-0.67-0.91-1.46-0.98c-0.76,0.22-0.76,0.99-0.84,1.68c-0.59,5-1.15,10-1.76,14.99
					c-0.12,0.98,0.28,1.7,0.87,2.38c2.24,2.6,4.52,5.17,6.73,7.8c1.09,1.3,2.01,1.33,3.1,0.01c2.04-2.46,4.11-4.89,6.22-7.3
					c0.95-1.08,1.04-2.03,0.08-3.17C345.86,135.21,341.57,130.05,337.26,124.91z" class="st0"></path>
			</g>
		</g>
	</g>
	<g>
		<g>
			<g>
				<path d="M336.14,46.74c3-1.63,5.99-3.29,8.98-4.96c0.4-0.22,0.93-0.49,0.85-1.04c-0.1-0.72-0.78-0.67-1.31-0.76
					c-1.88-0.31-3.76-0.68-5.66-0.89c-4.45-0.5-4.46-0.46-4.66,3.98c-0.04,0.79-0.1,1.59-0.1,2.38
					C334.23,46.82,334.74,47.5,336.14,46.74z" class="st13"></path>
			</g>
		</g>
	</g>
	<g>
		<g>
			<g>
				<path d="M311.59,41.02c-0.2-1.76-0.94-2.48-2.88-2.07c-4.39,0.93-8.7,2.11-12.92,3.59
					c-20.66,7.2-37.25,20.12-51.38,36.53c-1.01,1.17-1.13,2.11-0.15,3.36c3.9,4.97,7.76,9.97,11.59,14.99
					c1.07,1.4,1.97,1.35,3.03,0.01c1.74-2.19,3.54-4.34,5.33-6.49c3.84-4.6,7.63-9.25,11.58-13.77c2.52-2.88,3.65-2.8,6.2-0.03
					c0.6,0.65,1.16,1.32,1.71,2.01c4.08,5.13,8.12,10.3,12.25,15.39c4.32,5.35,8.73,10.63,13.1,15.93c0.39,0.48,0.77,1.21,1.5,0.95
					c0.72-0.25,0.59-1.05,0.63-1.67c0.27-3.59,0.65-7.17,0.77-10.76c0.17-4.74-1.26-8.99-4.55-12.51
					c-5.25-5.62-9.62-11.96-14.42-17.95c-2.68-3.35-2.3-5.01,1.35-7.37c4.63-3,9.28-5.97,13.93-8.94c2.53-1.62,4.21-3.7,3.86-6.93
					C311.95,43.87,311.75,42.44,311.59,41.02z" class="st0"></path>
			</g>
		</g>
	</g>
	<g>
		<g>
			<g>
				<path d="M230.91,102c-1.64-2.02-2.04-1.99-3.43,0.23c-15.18,24.2-23.02,50.76-25.47,79.07
					c-0.16,1.87,0.43,2.63,2.37,2.57c3.51-0.1,7.03-0.03,10.55-0.03c3.6,0,7.2-0.06,10.79,0.03c1.89,0.05,2.78-0.72,3.04-2.56
					c0.33-2.45,0.77-4.89,1.22-7.32c1.66-8.86,2.9-17.83,5.66-26.44c2.42-7.52,5.13-14.95,7.63-22.45c1.15-3.44,0.99-6.68-1.52-9.67
					C238.06,111.02,234.54,106.46,230.91,102z" class="st0"></path>
			</g>
		</g>
	</g>
	<g>
		<g>
			<g>
				<ellipse ry="19.26" rx="0.16" cy="162.09" cx="380.52" class="st14"></ellipse>
			</g>
		</g>
	</g>
	<g>
		<g>
			<g>
				<path d="M380.2,48.51L380.2,48.51C380.19,48.51,380.19,48.51,380.2,48.51c0.01,0.02,0.02,0.04,0.03,0.05
					C380.21,48.54,380.21,48.52,380.2,48.51z" class="st5"></path>
			</g>
		</g>
	</g>
	<g>
		<g>
			<g>
				<path d="M380.49,50.11c0.01,17.76,0.01,35.51,0.01,53.27c0,0.36,0.01,0.71,0.01,0.7c0-10.64,0-21.64,0-32.63
					c0-6.88,0.01-13.76-0.02-20.63c0-0.6,0.16-1.24-0.04-1.83C380.55,49.34,380.49,49.74,380.49,50.11z" class="st5"></path>
			</g>
		</g>
	</g>
	<g>
		<g>
			<g>
				<path d="M380.3,102.73c0,0.8-0.26,1.66,0.28,2.57c0.07-0.37,0.15-0.6,0.15-0.83c0.01-17.99,0.01-35.99,0-53.98
					c0-0.7,0.14-1.46-0.54-1.99c0.01,0.02,0.02,0.04,0.03,0.05c0.12,0.13,0.19,0.28,0.23,0.42c0.2,0.59,0.04,1.23,0.04,1.83
					c0.03,6.88,0.02,13.76,0.02,20.63c0,10.99,0,21.99,0,32.63c-0.01,0.01-0.01-0.34-0.01-0.7c0-17.76,0-35.51-0.01-53.27
					c0-0.37,0.06-0.76-0.03-1.13c-0.04-0.15-0.11-0.29-0.23-0.42c-0.01-0.02-0.02-0.03-0.03-0.05c0.03,1.04,0.08,2.08,0.08,3.11
					C380.28,68.66,380.28,85.69,380.3,102.73z" class="st5"></path>
			</g>
		</g>
	</g>
	<g>
		<g>
			<g>
				<path d="M380.45,48.98c-0.04-0.15-0.11-0.29-0.23-0.42" class="st15"></path>
			</g>
		</g>
	</g>
	<g>
		<g>
			<g>
				<path d="M392.91,90.67c0.08,0,0.16,0,0.23,0c0-11.73,0-23.47,0-35.2c-0.08-0.03-0.16-0.06-0.23-0.09
					C392.91,67.14,392.91,78.9,392.91,90.67z" class="st16"></path>
			</g>
		</g>
	</g>
</g>
</svg>
